<?xml version="1.0" encoding="UTF-8"?>
<svg xmlns="http://www.w3.org/2000/svg" width="200" height="200" viewBox="0 0 200 200">
  <defs>
    <style>
      .cls-1 {
        fill: #000;
      }
    </style>
  </defs>
  <path class="cls-1" d="M100,10c49.71,0,90,40.29,90,90s-40.29,90-90,90S10,149.71,10,100,50.29,10,100,10m0-10C44.77,0,0,44.77,0,100s44.77,100,100,100,100-44.77,100-100S155.23,0,100,0h0Z"/>
  <path class="cls-1" d="M100,30c38.66,0,70,31.34,70,70s-31.34,70-70,70-70-31.34-70-70,31.34-70,70-70m0-10c-44.18,0-80,35.82-80,80s35.82,80,80,80,80-35.82,80-80-35.82-80-80-80h0Z"/>
  <path class="cls-1" d="M140,100c0,22.09-17.91,40-40,40s-40-17.91-40-40,17.91-40,40-40,40,17.91,40,40Z"/>
  <text x="50%" y="50%" dominant-baseline="middle" text-anchor="middle" font-family="Arial" font-size="60" font-weight="bold" fill="#fff">OR</text>
</svg>