<?xml version="1.0" standalone="no"?>
<!DOCTYPE svg PUBLIC "-//W3C//DTD SVG 20010904//EN"
 "http://www.w3.org/TR/2001/REC-SVG-20010904/DTD/svg10.dtd">
<svg version="1.0" xmlns="http://www.w3.org/2000/svg"
 width="520.000000pt" height="480.000000pt" viewBox="0 0 520.000000 480.000000"
 preserveAspectRatio="xMidYMid meet">

<g transform="translate(0.000000,480.000000) scale(0.100000,-0.100000)"
fill="#000000" stroke="none">
<path d="M2235 4790 c-22 -5 -94 -19 -160 -31 -353 -64 -721 -237 -1015 -477
-455 -372 -734 -849 -837 -1436 -24 -136 -27 -176 -27 -396 0 -222 2 -260 27
-401 41 -235 118 -468 226 -680 58 -114 171 -303 221 -369 339 -445 834 -767
1360 -884 274 -61 625 -78 860 -42 202 30 301 58 575 158 54 20 289 144 355
188 184 122 320 236 451 375 104 111 131 144 206 250 107 152 170 267 273 499
41 93 108 325 130 451 6 39 16 88 20 110 48 219 28 609 -45 911 -43 174 -128
405 -197 534 -106 197 -256 403 -402 554 -76 78 -271 238 -379 310 -113 76
-377 216 -407 216 -9 0 -20 4 -25 9 -23 21 -213 82 -365 117 l-165 38 -320 2
c-176 1 -338 -2 -360 -6z m564 -121 c50 -25 91 -58 169 -137 56 -57 102 -108
102 -112 0 -4 -19 -15 -42 -26 l-41 -18 -21 29 c-41 60 -149 156 -207 186 -33
16 -94 37 -135 45 -70 15 -83 14 -158 0 -139 -28 -238 -92 -323 -209 -95 -132
-169 -201 -284 -266 -59 -33 -139 -61 -177 -61 l-22 0 25 50 c17 34 32 50 44
50 33 0 153 69 200 113 24 23 70 76 103 117 123 155 220 237 316 265 141 42
336 31 451 -26z m-644 -8 l29 -6 -38 -38 c-32 -30 -46 -37 -80 -37 -52 0 -123
-22 -186 -56 -43 -24 -52 -25 -84 -14 -20 6 -36 16 -36 21 0 12 77 68 120 87
99 43 200 59 275 43z m1028 -20 c54 -19 177 -96 177 -110 0 -4 -21 -12 -46
-19 -40 -11 -49 -10 -72 6 -56 38 -173 76 -217 70 -25 -3 -100 45 -110 71 -9
22 194 8 268 -18z m-741 -103 c25 -18 74 -54 109 -79 144 -105 228 -135 360
-126 84 5 165 30 309 95 25 12 47 20 50 20 3 -1 15 4 27 10 35 19 183 30 254
20 75 -11 164 -54 233 -111 48 -40 106 -111 106 -129 0 -5 -24 -6 -52 -2 -44
6 -61 14 -101 51 -26 24 -73 56 -105 71 -51 24 -68 26 -172 26 l-115 0 -128
-57 c-166 -75 -230 -92 -338 -91 -147 2 -246 42 -412 167 -46 35 -100 73 -120
86 -20 12 -37 26 -37 31 0 9 60 50 75 50 6 0 31 -15 57 -32z m322 1 c14 -11
26 -24 26 -28 0 -4 -19 -18 -42 -31 -24 -12 -51 -30 -60 -38 -15 -13 -21 -12
-53 8 -19 12 -35 27 -35 33 1 14 97 74 121 76 9 1 28 -8 43 -20z m-987 -63
c74 -20 163 -63 163 -79 0 -7 -13 -26 -29 -41 l-29 -28 -38 20 c-166 85 -370
52 -487 -78 -51 -56 -75 -113 -103 -238 -18 -80 -20 -83 -54 -92 -34 -10 -60
-13 -60 -7 0 1 6 38 14 82 18 99 49 194 81 245 62 98 195 191 315 220 55 13
170 11 227 -4z m701 -137 c19 -17 32 -33 29 -35 -12 -12 -149 -53 -215 -64
-75 -12 -184 -7 -212 10 -12 7 -8 16 20 45 l35 36 75 -6 c64 -5 84 -2 140 18
85 32 89 32 128 -4z m994 4 c9 -10 41 -62 71 -115 31 -53 68 -115 83 -138 32
-48 135 -137 181 -156 32 -14 36 -21 48 -81 8 -42 -7 -43 -79 -7 -113 56 -187
128 -263 254 -45 75 -133 236 -133 243 0 3 15 8 33 10 17 2 35 5 38 5 3 1 13
-6 21 -15z m-1742 -4 c0 -6 -18 -41 -39 -77 -21 -37 -51 -89 -66 -117 -112
-202 -234 -296 -452 -345 -322 -73 -378 -93 -448 -165 -27 -28 -63 -78 -80
-110 -29 -58 -30 -65 -30 -190 1 -113 4 -137 23 -179 12 -27 22 -56 22 -65 0
-16 -57 -79 -63 -70 -41 60 -87 235 -87 334 0 111 72 267 162 350 92 85 191
123 463 176 82 16 171 45 209 68 57 36 134 125 193 226 106 179 102 175 151
175 23 0 42 -5 42 -11z m1526 -89 c26 -16 70 -34 98 -40 46 -9 54 -15 74 -53
12 -23 22 -46 22 -50 0 -11 -48 -3 -125 19 -57 16 -195 97 -195 113 0 5 17 15
38 24 20 8 38 15 39 16 1 1 23 -12 49 -29z m641 -55 c166 -32 290 -121 367
-265 l39 -73 -29 7 c-16 4 -42 10 -57 13 -19 4 -34 17 -47 42 -25 51 -101 118
-164 147 -69 31 -132 43 -250 45 l-97 2 -25 36 c-13 19 -24 39 -24 43 0 20
188 22 287 3z m-2397 -3 c0 -4 -12 -25 -26 -46 -20 -30 -31 -37 -47 -32 -12 3
-41 6 -64 6 -24 0 -43 3 -43 8 0 4 9 22 20 40 19 31 21 32 90 32 38 0 70 -3
70 -8z m-350 -17 c0 -42 -31 -85 -89 -124 -56 -38 -131 -128 -131 -156 0 -6
-25 -15 -55 -21 -53 -9 -55 -9 -49 11 26 85 158 231 247 275 72 34 77 35 77
15z m1560 5 c614 -75 1127 -420 1380 -928 144 -290 197 -528 187 -852 -5 -169
-15 -253 -47 -375 -97 -367 -279 -658 -564 -902 -61 -52 -118 -98 -126 -101
-8 -3 -40 -22 -70 -42 -171 -115 -432 -213 -645 -242 -188 -25 -502 -14 -650
23 -410 104 -725 300 -967 604 -116 145 -238 377 -288 547 -95 324 -111 556
-59 868 65 383 274 749 568 994 80 66 224 166 240 166 5 0 11 4 13 8 2 5 50
32 108 60 272 133 653 204 920 172z m1232 -138 c4 -4 16 -50 28 -102 43 -192
84 -284 162 -365 34 -36 38 -45 38 -92 0 -32 -4 -53 -11 -53 -6 0 -42 30 -79
68 -107 107 -183 285 -225 526 l-6 39 43 -7 c24 -4 46 -10 50 -14z m173 -191
c172 -40 255 -81 348 -172 105 -104 157 -246 141 -382 -6 -58 -61 -247 -75
-261 -11 -12 -69 41 -69 63 0 8 10 42 23 75 18 50 22 82 22 171 0 106 -1 112
-34 173 -66 122 -173 194 -352 238 -63 15 -67 17 -78 54 -16 53 -14 61 12 55
12 -3 40 -9 62 -14z m-2935 -122 c0 -6 -15 -43 -34 -84 -25 -54 -53 -92 -107
-148 -66 -66 -90 -82 -227 -150 -85 -43 -156 -77 -158 -77 -10 0 -3 89 9 98 6
5 71 40 142 77 151 77 212 130 256 222 29 62 38 68 97 72 12 0 22 -4 22 -10z
m-279 -51 c0 -2 3 -30 5 -64 l5 -61 -41 -27 c-23 -15 -43 -26 -45 -24 -1 2 -6
35 -10 75 -7 71 -7 71 22 86 25 13 62 22 64 15z m3374 -22 c40 -17 40 -14 24
-168 -24 -226 16 -318 229 -539 105 -109 107 -113 93 -160 -11 -36 -34 -52
-43 -30 -1 5 -57 66 -123 136 -135 144 -184 211 -215 293 -43 115 -50 211 -25
372 8 52 15 98 15 103 0 10 6 9 45 -7z m132 -263 l62 -28 1 -46 c0 -25 -2 -48
-5 -51 -3 -3 -35 10 -70 29 l-65 34 0 45 c0 24 3 44 8 44 4 0 35 -12 69 -27z
m-3501 -93 c-7 -56 -49 -163 -88 -229 -14 -24 -58 -77 -98 -117 -118 -121
-249 -275 -287 -337 -60 -98 -78 -208 -48 -291 13 -36 12 -44 -7 -88 -11 -26
-24 -48 -28 -48 -4 0 -17 22 -29 49 -65 153 -49 302 49 448 21 32 113 139 205
238 169 183 218 255 232 339 4 28 14 39 52 60 25 14 48 26 50 26 2 0 1 -22 -3
-50z m-416 -96 c10 -45 9 -59 -3 -77 -36 -56 -59 -142 -58 -222 1 -77 -1 -82
-33 -120 -19 -22 -38 -36 -42 -32 -5 4 -9 70 -9 145 0 125 2 142 26 199 29 68
86 163 99 163 5 0 14 -25 20 -56z m4200 -4 c18 -27 43 -82 57 -122 23 -65 25
-84 21 -183 -4 -87 -10 -122 -30 -170 -31 -76 -137 -237 -152 -232 -6 2 -20
19 -30 38 l-19 35 36 49 c19 28 50 79 68 115 32 62 34 70 34 175 0 99 -3 117
-29 177 -26 63 -27 71 -16 118 7 27 16 50 20 50 4 0 22 -22 40 -50z m-3946
-347 c10 -64 6 -186 -8 -238 -18 -67 -43 -125 -54 -125 -5 0 -17 16 -28 35
-16 30 -17 41 -7 77 6 23 11 81 11 129 0 81 2 90 29 123 36 46 49 45 57 -1z
m3682 6 c32 -31 32 -32 27 -103 -5 -59 -1 -84 17 -137 30 -84 31 -86 117 -216
l75 -112 -22 -36 c-27 -43 -40 -44 -64 -2 -11 17 -47 75 -82 127 -34 52 -74
124 -89 159 -36 86 -52 217 -36 294 7 31 15 57 19 57 3 0 21 -14 38 -31z m384
-274 c28 -81 31 -103 26 -153 -22 -193 -46 -234 -276 -462 -196 -194 -245
-260 -270 -362 -11 -42 -16 -48 -61 -67 -59 -24 -59 -22 -28 83 43 144 66 176
287 400 175 177 214 230 238 318 17 64 18 167 3 218 -10 31 -8 42 10 78 12 23
25 42 30 42 4 0 22 -43 41 -95z m-4256 10 c146 -202 185 -282 200 -411 6 -45
-8 -191 -18 -202 -3 -2 -21 11 -41 29 -34 31 -36 36 -30 79 9 65 -11 174 -45
244 -17 34 -59 100 -95 149 -36 48 -65 90 -65 93 0 14 43 75 50 72 5 -2 25
-25 44 -53z m3910 -329 c-11 -32 -18 -83 -18 -138 -1 -82 -3 -88 -30 -117 -18
-19 -34 -27 -39 -22 -5 5 -12 46 -16 92 -9 99 4 178 43 264 l27 59 25 -44 c25
-44 25 -44 8 -94z m-3900 86 l18 -39 -46 -66 c-96 -137 -112 -331 -41 -493 17
-39 21 -63 17 -102 -2 -29 -8 -52 -13 -52 -14 0 -69 80 -100 145 -63 134 -61
310 6 461 29 66 112 184 129 184 7 0 21 -17 30 -38z m72 -340 c138 -133 188
-195 240 -297 59 -114 78 -220 70 -389 -3 -71 -8 -131 -11 -134 -2 -2 -21 2
-42 11 l-38 15 -1 148 c-1 160 -5 192 -37 269 -35 85 -96 166 -214 282 l-113
113 11 45 c6 25 14 45 18 45 3 0 56 -49 117 -108z m4125 41 c1 -21 2 -54 3
-73 2 -50 -12 -137 -31 -195 -16 -51 -98 -185 -113 -185 -4 0 -11 24 -14 54
-6 44 -3 62 13 94 37 72 51 126 51 197 0 66 2 71 37 107 20 21 41 38 45 38 4
0 9 -17 9 -37z m-244 -205 c1 -7 10 -44 21 -83 29 -100 46 -228 38 -291 -12
-107 -63 -222 -130 -292 -40 -43 -125 -106 -133 -99 -5 5 -2 23 12 93 2 5 23
31 47 56 40 42 67 86 97 161 18 46 13 222 -9 311 -22 85 -21 87 30 133 29 27
26 26 27 11z m-3859 -48 c21 -27 22 -31 8 -72 -8 -24 -20 -84 -27 -135 -14
-101 -5 -169 33 -249 52 -112 166 -184 371 -235 48 -12 53 -17 71 -76 6 -19 4
-23 -16 -23 -42 0 -221 50 -278 77 -147 70 -242 191 -270 342 -17 92 6 283 44
374 17 41 29 41 64 -3z m88 -241 l64 -32 0 -48 0 -48 -37 15 c-21 9 -53 25
-70 36 -29 17 -33 25 -33 64 0 24 3 44 6 44 4 0 35 -14 70 -31z m3693 -18 l-2
-49 -71 -33 c-39 -17 -102 -46 -141 -64 -97 -44 -156 -100 -200 -188 -37 -73
-50 -84 -107 -86 l-27 -1 20 59 c23 69 68 134 142 209 38 40 77 66 147 98 52
25 122 58 155 74 83 40 86 39 84 -19z m-3318 -207 c33 -39 79 -125 99 -186 17
-52 44 -155 87 -337 5 -19 3 -22 -13 -18 -11 4 -32 9 -47 13 -32 7 -40 22 -69
139 -52 209 -83 283 -147 350 -34 36 -40 48 -41 91 -1 27 -1 53 -1 57 1 9 104
-77 132 -109z m3159 -78 c0 -139 -20 -251 -60 -331 -98 -198 -271 -287 -525
-270 -115 8 -135 12 -135 30 0 7 10 26 23 40 22 25 24 26 177 28 142 2 159 4
205 27 56 27 143 109 164 155 40 88 53 146 60 280 l6 120 35 17 c19 9 38 17
43 18 4 0 7 -51 7 -114z m-150 -160 c0 -64 -9 -70 -136 -95 -161 -32 -207 -45
-267 -80 -90 -52 -133 -102 -278 -328 -29 -46 -55 -83 -58 -83 -12 0 -81 21
-81 25 0 8 140 231 180 286 58 80 168 172 244 204 46 19 267 73 389 94 4 0 7
-10 7 -23z m-2738 -74 c151 -78 223 -152 338 -347 29 -49 61 -101 72 -115 18
-23 18 -25 1 -31 -10 -4 -32 -8 -49 -8 -28 -1 -36 8 -115 132 -98 154 -179
239 -266 281 -56 27 -62 32 -72 72 -6 24 -11 45 -11 48 0 14 34 3 102 -32z
m-470 -24 c32 -9 44 -20 59 -52 64 -138 242 -216 457 -200 l89 6 22 -30 c11
-17 21 -34 21 -40 0 -16 -55 -22 -189 -22 -184 0 -284 34 -389 133 -76 73
-158 217 -122 217 7 0 30 -5 52 -12z m-162 -38 c0 -5 -4 -10 -10 -10 -5 0 -10
5 -10 10 0 6 5 10 10 10 6 0 10 -4 10 -10z m3160 -35 c0 -7 -5 -37 -11 -65
-12 -55 -29 -70 -79 -70 l-32 0 7 47 c11 72 21 91 52 96 54 8 63 7 63 -8z
m-2014 -196 c60 -23 146 -77 152 -97 2 -7 -12 -19 -33 -28 -35 -14 -39 -14
-78 9 -40 23 -82 39 -138 51 -23 5 -79 71 -79 92 0 12 122 -7 176 -27z m1463
-7 c-16 -28 -38 -45 -81 -66 -76 -35 -118 -74 -237 -215 -127 -152 -162 -184
-249 -226 -95 -46 -157 -59 -262 -53 -105 6 -183 40 -276 120 -55 47 -154 157
-154 170 0 7 76 31 87 27 6 -2 30 -29 54 -59 79 -97 196 -165 305 -175 60 -6
80 -4 142 18 101 35 167 89 276 225 84 105 124 147 211 220 15 12 29 21 31 19
2 -2 28 4 57 14 28 10 67 18 85 19 l33 0 -22 -38z m-928 -113 c35 -12 91 -36
124 -55 70 -39 237 -164 242 -180 2 -7 -12 -22 -32 -34 l-36 -22 -42 34 c-79
62 -167 119 -234 151 -59 27 -78 31 -148 30 -94 -1 -173 -20 -287 -69 -147
-64 -201 -77 -328 -78 -115 -1 -117 -1 -192 37 -74 36 -208 150 -208 176 0 7
20 11 51 11 47 0 56 -4 87 -36 20 -20 61 -49 91 -63 47 -22 73 -27 163 -29
117 -4 148 3 288 62 41 18 104 40 140 50 36 10 76 22 90 26 50 16 165 11 231
-11z m548 15 c38 -8 39 -16 6 -53 -24 -26 -31 -28 -108 -29 -49 0 -101 -7
-130 -17 l-48 -16 -40 29 c-46 34 -45 35 41 69 42 16 78 21 151 22 53 1 111
-2 128 -5z m831 -23 c0 -16 -90 -109 -142 -147 -76 -56 -135 -75 -241 -75 -90
0 -164 17 -266 62 -37 17 -38 25 -8 63 l24 29 79 -29 c67 -25 94 -29 174 -29
112 0 166 21 234 90 37 38 46 42 94 43 28 1 52 -2 52 -7z m-1292 -171 c17 -11
32 -23 32 -28 0 -4 -28 -24 -62 -44 l-61 -36 -39 25 c-21 15 -35 29 -31 34 24
22 100 68 113 69 8 0 30 -9 48 -20z m-560 -85 c46 -33 140 -65 190 -65 28 0
107 -59 95 -70 -14 -13 -101 -18 -156 -8 -88 16 -267 115 -267 148 0 6 51 25
82 29 5 1 30 -15 56 -34z m1297 21 c19 -8 35 -21 35 -28 0 -20 -98 -83 -167
-107 -59 -21 -214 -33 -229 -18 -8 8 57 66 81 71 11 3 41 8 66 11 29 4 72 21
110 45 35 21 65 39 67 40 1 0 18 -7 37 -14z"/>
<path d="M1920 3932 l-35 -17 4 -370 c2 -203 4 -846 5 -1428 1 -925 3 -1059
16 -1068 37 -25 257 34 285 77 17 27 17 3 9 496 -4 213 -3 402 0 420 5 24 21
44 57 71 28 21 57 36 64 33 8 -3 57 -58 108 -123 150 -187 232 -287 366 -449
69 -83 171 -207 226 -274 140 -173 147 -180 188 -180 28 0 49 13 115 70 85 73
102 95 102 128 0 11 -40 68 -89 128 -50 60 -159 195 -245 299 -85 105 -236
289 -335 410 -100 121 -181 223 -181 226 0 7 217 204 283 257 22 18 62 52 87
75 25 23 75 67 110 97 119 101 160 143 167 168 9 36 -20 81 -78 122 -28 19
-96 69 -152 111 -56 41 -147 107 -202 147 -55 40 -143 103 -195 142 -52 38
-155 114 -229 168 -74 53 -166 121 -205 150 -105 78 -169 119 -191 126 -11 3
-36 -2 -55 -12z m378 -600 c75 -57 145 -109 364 -275 58 -44 104 -86 102 -92
-3 -7 -44 -45 -91 -86 -47 -41 -147 -128 -222 -194 -186 -164 -230 -199 -239
-191 -12 13 -14 896 -1 896 6 0 45 -26 87 -58z m-218 -743 c0 -5 -4 -9 -10 -9
-5 0 -10 7 -10 16 0 8 5 12 10 9 6 -3 10 -10 10 -16z m-80 -150 c0 -6 -4 -7
-10 -4 -5 3 -10 11 -10 16 0 6 5 7 10 4 6 -3 10 -11 10 -16z m105 -319 c-3 -5
-11 -10 -16 -10 -6 0 -7 5 -4 10 3 6 11 10 16 10 6 0 7 -4 4 -10z m682 -249
c0 -11 -5 -18 -9 -15 -4 3 -5 11 -1 19 7 21 12 19 10 -4z"/>
</g>
</svg>
